G04*
G04 #@! TF.GenerationSoftware,Altium Limited,Altium Designer,24.1.2 (44)*
G04*
G04 Layer_Color=8421504*
%FSLAX25Y25*%
%MOIN*%
G70*
G04*
G04 #@! TF.SameCoordinates,3E25AAAC-FE6F-4FE5-8934-E69CDF353235*
G04*
G04*
G04 #@! TF.FilePolarity,Positive*
G04*
G01*
G75*
%ADD15R,0.08268X0.03740*%
%ADD16R,0.25591X0.21654*%
%ADD17R,0.07284X0.05315*%
%ADD18R,0.07874X0.05512*%
%ADD19R,0.03150X0.03150*%
%ADD20R,0.03150X0.03937*%
%ADD21R,0.05906X0.02756*%
%ADD22C,0.08000*%
%ADD23R,0.03150X0.01968*%
%ADD24R,0.05400X0.04000*%
%ADD25R,0.03598X0.03000*%
%ADD26R,0.03000X0.03598*%
%ADD27R,0.01850X0.02520*%
%ADD28R,0.05315X0.07284*%
D15*
X109000Y91747D02*
D03*
Y109700D02*
D03*
D16*
X84197Y100724D02*
D03*
D17*
X72384Y188244D02*
D03*
Y200252D02*
D03*
X99156Y188244D02*
D03*
Y200252D02*
D03*
D18*
X107277Y132400D02*
D03*
Y152400D02*
D03*
X123812D02*
D03*
Y132400D02*
D03*
D19*
X118000Y114653D02*
D03*
Y108747D02*
D03*
D20*
X195134Y155818D02*
D03*
Y115267D02*
D03*
X186866Y155818D02*
D03*
Y115267D02*
D03*
D21*
X184110Y147353D02*
D03*
Y141448D02*
D03*
Y129637D02*
D03*
Y123732D02*
D03*
D22*
X88000Y78700D02*
D03*
X14000Y131000D02*
D03*
X150000Y155700D02*
D03*
D23*
X88920Y199760D02*
D03*
X81046D02*
D03*
D24*
X8000Y175660D02*
D03*
Y167740D02*
D03*
X139600Y167591D02*
D03*
Y175511D02*
D03*
X188000Y175660D02*
D03*
Y167740D02*
D03*
X39749Y167785D02*
D03*
Y175705D02*
D03*
D25*
X125000Y114800D02*
D03*
Y120600D02*
D03*
X98369Y157296D02*
D03*
Y163096D02*
D03*
X118000Y91800D02*
D03*
Y97600D02*
D03*
D26*
X178900Y98700D02*
D03*
X173100D02*
D03*
X178900Y91700D02*
D03*
X173100D02*
D03*
X136000Y38000D02*
D03*
X130200D02*
D03*
X108900Y119700D02*
D03*
X103100D02*
D03*
X135900Y31000D02*
D03*
X130100D02*
D03*
X178900Y105700D02*
D03*
X173100D02*
D03*
X135900Y24000D02*
D03*
X130100D02*
D03*
D27*
X59939Y200200D02*
D03*
X63550D02*
D03*
X108640D02*
D03*
X112250D02*
D03*
D28*
X107719Y163346D02*
D03*
X119727D02*
D03*
M02*
