M48
;Layer_Color=9474304
;FILE_FORMAT=2:5
INCH,LZ
;TYPE=PLATED
T01F00S00C0.01200
T02F00S00C0.04000
T03F00S00C0.04606
T04F00S00C0.05118
T05F00S00C0.05315
T07F00S00C0.08307
T08F00S00C0.14400
%
T01
X0093Y0005
X00805Y003
Y008
X01055
X01305
X01555
X0168Y0055
X01805Y003
X01555
X0143Y0005
X0118
X01055Y003
X0118Y0055
X01305Y013
X01555
X0168Y0155
X0143
Y0187
X0168
X0118
X01305Y0212
X01055
X0168Y0105
X00805Y013
X00555
X00305
X0043Y0155
X0068
X0093
Y0187
X00805Y0212
X00555
X00305
X0018Y0155
T02
X0107Y0013
X0157
T03
X016766Y02002
X00307
T04
X0179Y0048
Y0068
T05
X0056024Y0166559
X0065866
X0075709
T07
X0154668Y0187208
Y0213192
X0180652
Y0187208
X0043692
X0017708
Y0213192
X0043692
T08
X0088Y00607
X0165Y01637
X0026
M30
